# OBJ generated by ONSHAPE BY PTC INC, 1.219 Units = meters
mtllib Part Studio 1.mtl
g Part 1
v -0.078 -0.002 0 
v -0.078 -0.0818171 0.00329532 
v -0.078 -0.0838424 0.00222004 
v -0.078 -0.0795494 0.00427207 
v -0.078 -0.020041 0.0261013 
v -0.078 -0.024058 0.0233272 
v -0.078 -0.0858762 0.000888391 
v -0.078 -0.0162539 0.0289701 
v -0.078 -0.0769551 0.00516859 
v -0.078 -0.0282411 0.0207012 
v -0.078 -0.0739053 0.00600768 
v -0.078 -0.0127481 0.0318812 
v -0.078 -0.069545 0.00695455 
v -0.078 -0.0325192 0.0182736 
v -0.078 -0.0631179 0.008124 
v -0.078 -0.00956082 0.0347868 
v -0.078 -0.0570183 0.00928878 
v -0.078 -0.0368182 0.0160875 
v -0.078 -0.0529769 0.0102118 
v -0.078 -0.00671446 0.0376463 
v -0.078 -0.0491803 0.0112502 
v -0.078 -0.0410679 0.014176 
v -0.078 -0.0452061 0.0125604 
v -0.078 -0.00421978 0.040425 
v -0.078 -0.002 0.0431967 
v -0.078 -0.087021 -2.1684e-18 
v -0.002 -0.002 0 
v -0.002 -0.002 0.0431967 
v -0.002 -0.0858762 0.000888391 
v -0.002 -0.087021 -1.0842e-18 
v -0.002 -0.0838424 0.00222004 
v -0.002 -0.0818171 0.00329532 
v -0.002 -0.0795494 0.00427207 
v -0.002 -0.0769551 0.00516859 
v -0.002 -0.0739053 0.00600768 
v -0.002 -0.069545 0.00695455 
v -0.002 -0.0631179 0.008124 
v -0.002 -0.0570183 0.00928878 
v -0.002 -0.0529769 0.0102118 
v -0.002 -0.0491803 0.0112502 
v -0.002 -0.0452061 0.0125604 
v -0.002 -0.0410679 0.014176 
v -0.002 -0.0368182 0.0160875 
v -0.002 -0.0325192 0.0182736 
v -0.002 -0.0282411 0.0207012 
v -0.002 -0.024058 0.0233272 
v -0.002 -0.020041 0.0261013 
v -0.002 -0.0162539 0.0289701 
v -0.002 -0.0127481 0.0318812 
v -0.002 -0.00956082 0.0347868 
v -0.002 -0.00671446 0.0376463 
v -0.002 -0.00421978 0.040425 
v 0 0 0 
v 0 -0.09 -1.90817e-17 
v -0.08 -0.09 -1.90817e-17 
v -0.08 0 0 
v -0.08 0 0.04292 
v 0 0 0.04292 
v -0.08 -0.00198179 0.046681 
v 1.38778e-17 -0.00198179 0.046681 
v 0 0 0.05 
v -0.08 -0.00510451 0.042485 
v 1.38778e-17 -0.00510451 0.042485 
v -0.08 -0.00894197 0.038214 
v 1.38778e-17 -0.00894197 0.038214 
v -0.08 -0.0140678 0.033384 
v 1.38778e-17 -0.0140678 0.033384 
v -0.08 -0.0201383 0.0285097 
v 1.38778e-17 -0.0201383 0.0285097 
v -0.08 -0.0269889 0.023817 
v 1.38778e-17 -0.0269889 0.023817 
v -0.08 -0.0343106 0.0195859 
v 2.77556e-17 -0.0343106 0.0195859 
v 1.38778e-17 -0.0417051 0.0160778 
v -0.08 -0.0485046 0.0135521 
v 1.38778e-17 -0.0485046 0.0135521 
v -0.08 -0.0550684 0.0117659 
v 1.38778e-17 -0.0550684 0.0117659 
v -0.08 -0.0638429 0.0100262 
v 1.38778e-17 -0.0638429 0.0100262 
v -0.08 -0.0724687 0.00839379 
v 2.77556e-17 -0.0724687 0.00839379 
v -0.08 -0.0772783 0.00716114 
v 2.77556e-17 -0.0772783 0.00716114 
v 0 -0.0807809 0.00593574 
v -0.08 -0.0835635 0.00465863 
v 1.38778e-17 -0.0835635 0.00465863 
v -0.08 -0.0859059 0.00329519 
v 1.38778e-17 -0.0859059 0.00329519 
v -0.08 -0.0879729 0.00180352 
v 1.38778e-17 -0.0879729 0.00180352 
v -0.08 -0.0807809 0.00593574 
v -0.08 -0.0417051 0.0160778 
v -0.08 0 0.05 
v -0.08 2.64836e-05 0.043438 
v -0.08 0.000236699 0.0444526 
v -0.08 0.000924738 0.0458424 
v -0.08 0.000648385 0.0454034 
v -0.08 0.00124442 0.0462509 
v -0.08 0.000105658 0.0439507 
v -0.08 0.000418239 0.0449385 
v -0.08 0.00160409 0.0466246 
v -0.08 0.002 0.05 
v -0.08 0.002 0.0469598 
v 0 2.64836e-05 0.043438 
v 0 0.00160409 0.0466246 
v 0 0.002 0.0469598 
v 0 0.000924738 0.0458424 
v 0 0.00124442 0.0462509 
v 0 0.000418239 0.0449385 
v 0 0.000648385 0.0454034 
v 0 0.000105658 0.0439507 
v 0 0.000236699 0.0444526 
v 0 0.002 0.05 
vn 1 0 0 
vn 0 -1 0 
vn 0 0.588762 -0.808306 
vn 0 0.636914 -0.770935 
vn 0 0.506456 -0.862266 
vn 0 0.432106 -0.901823 
vn 0 0.360632 -0.932708 
vn 0 0.295075 -0.955474 
vn 0 0.238779 -0.971074 
vn 0 0.191371 -0.981518 
vn 0 0.175937 -0.984401 
vn 0 0.205151 -0.97873 
vn 0 0.242119 -0.970247 
vn 0 0.286782 -0.957996 
vn 0 0.338785 -0.940864 
vn 0 0.387355 -0.921931 
vn 0 0.432094 -0.901829 
vn 0 0.473707 -0.880683 
vn 0 0.512859 -0.858473 
vn 0 0.550169 -0.835053 
vn 0 0.5862 -0.810167 
vn 0 0.621455 -0.78345 
vn 0 0.656369 -0.75444 
vn 0 0.691299 -0.722569 
vn 0 0.726503 -0.687163 
vn 0 0.762087 -0.647474 
vn 0 0.799369 -0.60084 
vn 0 0.691299 -0.722569 
vn 0 0.5862 -0.810167 
vn 0 0.432094 -0.901829 
vn 0 0.238779 -0.971074 
vn 0 0.588762 -0.808306 
vn -1 0 0 
vn 0 0 -1 
vn 0 1 0 
vn 0 -0.832933 0.553373 
vn 0 -0.884505 0.46653 
vn 0 -0.772518 0.634993 
vn 0 -0.716184 0.697911 
vn 0 -0.656295 0.754505 
vn 0 -0.596213 0.802826 
vn 0 -0.53359 0.845743 
vn 0 -0.465603 0.884993 
vn 0 -0.388909 0.921276 
vn 0 -0.303671 0.952777 
vn 0 -0.225661 0.974206 
vn 0 -0.175386 0.9845 
vn 0 -0.214175 0.976795 
vn 0 -0.289522 0.957171 
vn 0 -0.374721 0.927138 
vn 0 -0.461246 0.887272 
vn 0 -0.545105 0.838368 
vn 0 -0.624377 0.781123 
vn 0 -0.702938 0.711251 
vn 0 -0.374721 0.927138 
vn 0 -0.388909 0.921276 
vn 0 -0.884505 0.46653 
vn -1 0 0 
vn 1 0 0 
vn 0 0 1 
vn 0 1 0 
vn 0 0.684235 -0.729262 
vn 0 0.606299 -0.795237 
vn 0 0.755036 -0.655683 
vn 0 0.684235 -0.729262 
vn 0 0.817965 -0.575268 
vn 0 0.755036 -0.655683 
vn 0 0.872365 -0.488855 
vn 0 0.817965 -0.575268 
vn 0 0.91767 -0.397344 
vn 0 0.872365 -0.488855 
vn 0 0.953406 -0.301691 
vn 0 0.91767 -0.397344 
vn 0 0.979201 -0.202892 
vn 0 0.953406 -0.301691 
vn 0 0.994787 -0.101978 
vn 0 0.979201 -0.202892 
vn 0 1 1.83697e-16 
vn 0 0.994787 -0.101978 
usemtl 0.615686_0.811765_0.929412_0.000000_0.000000
o mesh0
f 1//1 2//1 3//1 
f 1//1 4//1 2//1 
f 1//1 5//1 6//1 
f 3//1 7//1 1//1 
f 1//1 8//1 5//1 
f 1//1 9//1 4//1 
f 6//1 10//1 1//1 
f 1//1 11//1 9//1 
f 1//1 12//1 8//1 
f 1//1 13//1 11//1 
f 10//1 14//1 1//1 
f 1//1 15//1 13//1 
f 1//1 16//1 12//1 
f 1//1 17//1 15//1 
f 14//1 18//1 1//1 
f 1//1 19//1 17//1 
f 1//1 20//1 16//1 
f 1//1 21//1 19//1 
f 18//1 22//1 1//1 
f 1//1 23//1 21//1 
f 1//1 24//1 20//1 
f 22//1 23//1 1//1 
f 1//1 25//1 24//1 
f 7//1 26//1 1//1 
o mesh1
f 25//2 1//2 27//2 
f 27//2 28//2 25//2 
o mesh2
f 29//3 30//4 26//4 
f 3//5 31//5 29//3 
f 2//6 32//6 31//5 
f 4//7 33//7 32//6 
f 9//8 34//8 33//7 
f 35//9 34//8 9//8 
f 13//10 36//10 35//9 
f 15//11 37//11 36//10 
f 17//12 38//12 37//11 
f 19//13 39//13 38//12 
f 21//14 40//14 39//13 
f 23//15 41//15 40//14 
f 22//16 42//16 41//15 
f 43//17 42//16 22//16 
f 14//18 44//18 43//17 
f 10//19 45//19 44//18 
f 6//20 46//20 45//19 
f 47//21 46//20 6//20 
f 8//22 48//22 47//21 
f 12//23 49//23 48//22 
f 50//24 49//23 12//23 
f 20//25 51//25 50//24 
f 24//26 52//26 51//25 
f 25//27 28//27 52//26 
f 52//26 24//26 25//27 
f 51//25 20//25 24//26 
f 50//24 16//28 20//25 
f 12//23 16//28 50//24 
f 48//22 8//22 12//23 
f 47//21 5//29 8//22 
f 6//20 5//29 47//21 
f 45//19 10//19 6//20 
f 44//18 14//18 10//19 
f 43//17 18//30 14//18 
f 22//16 18//30 43//17 
f 41//15 23//15 22//16 
f 40//14 21//14 23//15 
f 39//13 19//13 21//14 
f 38//12 17//12 19//13 
f 37//11 15//11 17//12 
f 36//10 13//10 15//11 
f 35//9 11//31 13//10 
f 9//8 11//31 35//9 
f 33//7 4//7 9//8 
f 32//6 2//6 4//7 
f 31//5 3//5 2//6 
f 29//3 7//32 3//5 
f 26//4 7//32 29//3 
o mesh3
f 27//33 29//33 31//33 
f 27//33 45//33 46//33 
f 31//33 32//33 27//33 
f 46//33 47//33 27//33 
f 27//33 30//33 29//33 
f 27//33 44//33 45//33 
f 32//33 33//33 27//33 
f 47//33 48//33 27//33 
f 33//33 34//33 27//33 
f 27//33 43//33 44//33 
f 34//33 35//33 27//33 
f 48//33 49//33 27//33 
f 35//33 36//33 27//33 
f 27//33 42//33 43//33 
f 36//33 37//33 27//33 
f 49//33 50//33 27//33 
f 37//33 38//33 27//33 
f 27//33 41//33 42//33 
f 38//33 39//33 27//33 
f 50//33 51//33 27//33 
f 39//33 40//33 27//33 
f 40//33 41//33 27//33 
f 51//33 52//33 27//33 
f 52//33 28//33 27//33 
o mesh4
f 53//34 54//34 30//34 
f 54//34 55//34 26//34 
f 26//34 30//34 54//34 
f 56//34 1//34 26//34 
f 56//34 53//34 27//34 
f 26//34 55//34 56//34 
f 30//34 27//34 53//34 
f 27//34 1//34 56//34 
o mesh5
f 53//35 56//35 57//35 
f 57//35 58//35 53//35 
o mesh6
f 59//36 60//36 61//37 
f 62//38 63//38 60//36 
f 64//39 65//39 63//38 
f 66//40 67//40 65//39 
f 68//41 69//41 67//40 
f 70//42 71//42 69//41 
f 72//43 73//43 71//42 
f 74//44 73//43 72//43 
f 75//45 76//45 74//44 
f 77//46 78//46 76//45 
f 79//47 80//47 78//46 
f 81//48 82//48 80//47 
f 83//49 84//49 82//48 
f 85//50 84//49 83//49 
f 86//51 87//51 85//50 
f 88//52 89//52 87//51 
f 90//53 91//53 89//52 
f 55//54 54//54 91//53 
f 91//53 90//53 55//54 
f 89//52 88//52 90//53 
f 87//51 86//51 88//52 
f 85//50 92//55 86//51 
f 83//49 92//55 85//50 
f 82//48 81//48 83//49 
f 80//47 79//47 81//48 
f 78//46 77//46 79//47 
f 76//45 75//45 77//46 
f 74//44 93//56 75//45 
f 72//43 93//56 74//44 
f 71//42 70//42 72//43 
f 69//41 68//41 70//42 
f 67//40 66//40 68//41 
f 65//39 64//39 66//40 
f 63//38 62//38 64//39 
f 60//36 59//36 62//38 
f 61//37 94//57 59//36 
o mesh7
f 56//58 55//58 90//58 
f 90//58 88//58 56//58 
f 56//58 70//58 68//58 
f 88//58 86//58 56//58 
f 56//58 72//58 70//58 
f 86//58 92//58 56//58 
f 56//58 64//58 62//58 
f 68//58 66//58 56//58 
f 92//58 83//58 56//58 
f 62//58 95//58 57//58 
f 56//58 93//58 72//58 
f 83//58 81//58 56//58 
f 66//58 64//58 56//58 
f 81//58 79//58 56//58 
f 56//58 75//58 93//58 
f 79//58 77//58 56//58 
f 77//58 75//58 56//58 
f 62//58 59//58 96//58 
f 59//58 97//58 98//58 
f 59//58 94//58 99//58 
f 62//58 100//58 95//58 
f 59//58 101//58 96//58 
f 99//58 97//58 59//58 
f 96//58 100//58 62//58 
f 94//58 102//58 99//58 
f 98//58 101//58 59//58 
f 94//58 103//58 104//58 
f 104//58 102//58 94//58 
f 62//58 57//58 56//58 
o mesh8
f 53//59 89//59 91//59 
f 53//59 87//59 89//59 
f 53//59 85//59 87//59 
f 53//59 67//59 69//59 
f 53//59 84//59 85//59 
f 69//59 71//59 53//59 
f 53//59 82//59 84//59 
f 53//59 65//59 67//59 
f 53//59 58//59 63//59 
f 53//59 80//59 82//59 
f 71//59 73//59 53//59 
f 63//59 65//59 53//59 
f 53//59 78//59 80//59 
f 58//59 105//59 63//59 
f 53//59 76//59 78//59 
f 73//59 74//59 53//59 
f 61//59 106//59 107//59 
f 60//59 108//59 109//59 
f 60//59 110//59 111//59 
f 63//59 112//59 113//59 
f 74//59 76//59 53//59 
f 61//59 109//59 106//59 
f 111//59 108//59 60//59 
f 113//59 60//59 63//59 
f 91//59 54//59 53//59 
f 109//59 61//59 60//59 
f 105//59 112//59 63//59 
f 113//59 110//59 60//59 
f 107//59 114//59 61//59 
o mesh9
f 103//60 94//60 61//60 
f 61//60 114//60 103//60 
o mesh10
f 114//61 107//61 104//61 
f 104//61 103//61 114//61 
o mesh11
f 102//62 104//63 107//63 
f 99//64 102//62 106//65 
f 97//66 99//64 109//67 
f 98//68 97//66 108//69 
f 101//70 98//68 111//71 
f 96//72 101//70 110//73 
f 100//74 96//72 113//75 
f 95//76 100//74 112//77 
f 57//78 95//76 105//79 
f 105//79 58//78 57//78 
f 112//77 105//79 95//76 
f 113//75 112//77 100//74 
f 110//73 113//75 96//72 
f 111//71 110//73 101//70 
f 108//69 111//71 98//68 
f 109//67 108//69 97//66 
f 106//65 109//67 99//64 
f 107//63 106//65 102//62 
