# OBJ generated by ONSHAPE BY PTC INC, 1.219 Units = meters
mtllib MYpyramid.mtl
g Part 1
v -1.38778e-17 -6.93889e-18 0.1016 
v -0.0508 0.0508 0 
v -0.0508 -0.0508 0 
v 0.0508 0.0508 0 
v 0.0508 -0.0508 0 
vn -0.894427 1.83258e-16 0.447214 
vn 0 0 -1 
vn 0 -0.894427 0.447214 
vn 0.894427 -1.83258e-16 0.447214 
vn 0 0.894427 0.447214 
usemtl 0.615686_0.811765_0.929412_0.000000_0.000000
o mesh0
f 1//1 2//1 3//1 
o mesh1
f 3//2 2//2 4//2 
f 4//2 5//2 3//2 
o mesh2
f 1//3 3//3 5//3 
o mesh3
f 1//4 5//4 4//4 
o mesh4
f 1//5 4//5 2//5 
